<?xml version="1.0" standalone="no"?>
<!DOCTYPE svg PUBLIC "-//W3C//DTD SVG 20010904//EN"
 "http://www.w3.org/TR/2001/REC-SVG-20010904/DTD/svg10.dtd">
<svg version="1.0" xmlns="http://www.w3.org/2000/svg"
 width="260.000000pt" height="260.000000pt" viewBox="0 0 260.000000 260.000000"
 preserveAspectRatio="xMidYMid meet">
<metadata>
Created by potrace 1.11, written by Peter Selinger 2001-2013
</metadata>
<g transform="translate(0.000000,260.000000) scale(0.100000,-0.100000)"
fill="#000000" stroke="none">
<path d="M1449 2489 c-50 -98 -128 -320 -256 -729 -57 -181 -31 -157 -268
-246 -281 -105 -546 -222 -690 -303 -137 -77 -185 -112 -185 -137 0 -29 41
-58 70 -49 11 4 44 22 73 41 71 47 433 228 587 293 170 72 300 115 312 103 13
-13 -7 -84 -112 -407 -153 -470 -179 -614 -118 -643 18 -9 34 -9 52 -2 23 8
26 15 26 59 0 59 49 255 118 471 28 85 60 189 72 230 79 273 100 329 142 366
24 23 199 77 209 66 4 -4 9 -320 12 -702 4 -424 10 -715 16 -745 13 -58 48
-95 91 -95 44 0 52 25 35 106 -27 127 -39 497 -30 996 5 342 11 472 20 484 6
9 101 46 216 84 218 72 250 92 152 98 -63 4 -135 -9 -261 -44 -132 -38 -125
-52 -120 236 4 170 10 263 23 337 16 84 17 104 6 117 -8 9 -20 16 -29 16 -8 0
-20 7 -27 16 -7 10 -32 19 -63 22 l-50 4 -23 -43z m46 -499 c0 -161 -4 -263
-11 -270 -12 -12 -151 -60 -176 -60 -10 0 -18 6 -18 13 0 22 196 577 203 577
1 0 2 -117 2 -260z"/>
<path d="M1718 1439 c-17 -9 -18 -36 -18 -336 0 -330 9 -440 37 -468 18 -18
101 -20 138 -3 30 14 67 70 133 203 117 236 141 416 66 505 -40 47 -79 62
-173 68 -63 3 -93 10 -110 23 -26 21 -47 23 -73 8z m247 -113 c50 -21 69 -65
61 -143 -8 -78 -54 -222 -106 -328 -38 -80 -102 -166 -115 -154 -13 14 -26
269 -20 399 9 185 15 212 45 227 33 17 93 16 135 -1z"/>
<path d="M2290 1420 c-38 -9 -100 -72 -100 -103 0 -11 8 -29 19 -42 16 -21 18
-38 14 -147 -4 -98 -9 -132 -26 -166 -21 -42 -21 -44 -3 -57 19 -14 29 -48 46
-155 18 -110 27 -130 61 -130 40 0 45 17 31 119 -7 47 -15 116 -18 153 l-7 66
63 64 c184 188 234 357 118 397 -36 13 -146 13 -198 1z m141 -70 c39 -22 15
-104 -60 -197 -23 -29 -46 -53 -52 -53 -13 0 -4 156 13 208 14 45 58 63 99 42z"/>
<path d="M1744 530 c-28 -11 -74 -71 -74 -96 0 -14 5 -11 20 14 29 47 40 40
40 -27 0 -79 11 -151 22 -151 6 0 8 17 4 43 -6 38 -3 48 28 92 20 27 38 62 42
77 10 49 -26 71 -82 48z m64 -29 c3 -19 -45 -118 -52 -109 -2 2 -6 29 -10 61
-6 53 -5 58 16 67 31 12 42 7 46 -19z"/>
<path d="M1010 459 c0 -4 -9 -11 -20 -14 -11 -3 -20 -13 -20 -21 0 -12 4 -12
20 -4 19 10 20 8 20 -78 0 -82 -2 -91 -22 -105 l-23 -16 23 0 c12 -1 22 -5 22
-11 0 -5 5 -10 11 -10 6 0 8 9 4 20 -3 11 -2 20 3 20 20 0 102 94 111 127 12
44 -1 81 -31 87 -44 9 -98 12 -98 5z m113 -40 c7 -12 7 -25 -2 -46 -15 -36
-77 -107 -88 -100 -4 3 -7 42 -5 87 l4 81 40 -3 c24 -2 45 -10 51 -19z"/>
<path d="M2051 450 c-7 -18 -10 -20 -10 -7 -1 9 -5 17 -10 17 -13 0 -20 -51
-11 -74 8 -20 9 -19 11 4 1 17 3 20 6 8 2 -10 14 -18 25 -18 14 0 18 5 14 15
-3 10 1 15 13 15 11 0 22 -6 24 -12 3 -8 6 -6 6 4 1 22 -20 68 -31 68 -4 0 -8
-6 -8 -12 0 -9 -3 -8 -10 2 -7 12 -11 10 -19 -10z"/>
<path d="M1968 445 c-3 -3 -1 -23 4 -45 8 -31 13 -36 23 -27 7 7 10 17 7 22
-4 6 -5 20 -3 33 2 20 -17 31 -31 17z"/>
<path d="M1870 432 c0 -5 -10 -8 -22 -8 -23 1 -25 -9 -19 -71 1 -14 57 -7 78
9 7 5 14 5 18 -2 10 -15 35 7 35 31 0 12 -5 16 -15 13 -9 -4 -15 0 -15 9 0 8
6 18 13 20 7 4 6 6 -4 6 -9 1 -20 -7 -24 -16 -6 -17 -7 -17 -16 0 -10 17 -29
23 -29 9z"/>
<path d="M540 365 c-7 -32 -17 -55 -24 -55 -17 0 -99 -60 -93 -67 3 -3 18 4
34 14 15 11 39 26 51 32 21 11 23 11 18 -6 -13 -46 -18 -93 -8 -93 5 0 13 24
16 54 4 30 13 59 20 65 11 9 15 0 20 -41 11 -88 18 -118 25 -113 4 2 6 18 3
35 -3 19 0 30 8 30 7 0 10 7 6 15 -8 21 21 19 33 -2 9 -16 11 -15 12 7 1 17 3
20 6 8 6 -23 39 -23 52 0 6 9 11 12 11 6 0 -6 6 -11 13 -11 8 0 13 15 13 39 1
31 -2 38 -15 36 -9 -2 -16 -13 -16 -24 0 -22 -21 -54 -36 -54 -12 0 -8 52 5
69 9 12 7 13 -7 8 -10 -4 -20 -7 -23 -7 -2 0 -1 -6 2 -14 3 -8 1 -17 -4 -20
-5 -3 -13 4 -17 17 l-7 22 -7 -25 -7 -25 -8 25 c-8 23 -9 22 -16 -15 l-7 -40
-2 47 c-1 35 4 50 17 58 15 10 14 11 -5 7 -21 -5 -23 -1 -23 34 0 61 -26 51
-40 -16z"/>
<path d="M1328 372 c-12 -2 -18 -13 -18 -31 0 -33 23 -67 38 -57 17 10 15 26
-3 20 -11 -5 -14 1 -13 22 1 16 7 32 12 36 14 9 5 15 -16 10z"/>
<path d="M1372 338 c2 -35 7 -43 22 -43 11 0 22 7 24 15 4 13 3 13 -11 2 -14
-12 -16 -9 -15 20 1 18 6 36 12 40 6 5 1 8 -12 8 -21 0 -23 -4 -20 -42z"/>
<path d="M1269 363 c-1 -5 -1 -16 0 -25 2 -12 -5 -18 -18 -18 -14 0 -19 -5
-15 -15 4 -8 1 -15 -5 -15 -14 0 -14 25 0 52 9 16 8 19 -3 16 -7 -3 -14 -16
-16 -29 -2 -14 -11 -30 -22 -37 -17 -10 -19 -8 -18 21 1 18 6 36 12 40 7 5 3
7 -9 5 -16 -3 -20 -11 -19 -41 2 -46 9 -55 33 -40 14 9 21 9 30 0 9 -9 17 -6
31 13 16 20 20 22 20 8 0 -20 8 -22 29 -9 9 6 10 11 2 15 -6 4 -8 20 -4 36 4
23 2 30 -11 30 -9 0 -17 -3 -17 -7z"/>
<path d="M880 318 c-1 -20 -2 -21 -11 -5 -5 9 -14 17 -18 17 -13 0 -20 -51
-11 -74 8 -20 9 -19 11 4 1 18 3 20 6 7 3 -12 13 -17 35 -15 37 3 42 11 32 56
l-7 37 -7 -30 c-6 -23 -8 -25 -9 -8 -1 30 -21 40 -21 11z"/>
<path d="M794 317 c-10 -28 0 -72 19 -75 9 -2 17 1 17 7 0 6 -6 10 -12 9 -7
-2 -14 7 -16 20 -2 15 2 22 13 22 9 0 15 5 13 12 -6 18 -27 21 -34 5z"/>
<path d="M773 280 c0 -25 2 -35 4 -22 2 12 2 32 0 45 -2 12 -4 2 -4 -23z"/>
</g>
</svg>
